<svg width="1308" height="1471" viewBox="0 0 1308 1471" fill="none" xmlns="http://www.w3.org/2000/svg">
<g opacity="0.05" clip-path="url(#clip0_28_522)">
<mask id="mask0_28_522" style="mask-type:luminance" maskUnits="userSpaceOnUse" x="0" y="72" width="1398" height="1398">
<path d="M0.174866 72.063H1397.83V1469.55H0.174866V72.063Z" fill="white"/>
</mask>
<g mask="url(#mask0_28_522)">
<path d="M1271.43 88.1298C1283.41 88.1935 1290.69 97.251 1287.4 108.073C1252.64 222.773 1197.2 314.638 1128.32 391.641C1121.82 398.898 1108.12 402.038 1097.9 398.827C1021.62 375.021 945.328 351.201 869.042 327.388C858.831 324.156 854.517 317.289 859.329 311.924C910.656 254.545 951.967 186.09 977.876 100.617C980.303 92.616 991.835 86.0036 1003.84 86.0532C1093.04 86.7407 1182.23 87.4423 1271.43 88.1298ZM1365.01 100.986C1367.72 101.021 1369.31 103.219 1368.53 105.834C1365.56 115.784 1362.45 125.579 1359.22 135.217C1358.35 137.762 1355.45 139.711 1352.78 139.583C1336.09 138.789 1319.41 137.989 1302.73 137.202C1300.09 137.081 1298.58 135.012 1299.38 132.588C1302.48 123.403 1305.44 114.069 1308.27 104.586C1309.02 102.085 1311.81 100.072 1314.5 100.114C1331.33 100.412 1348.17 100.703 1365.01 100.986ZM1333.1 191.136C1335.73 191.377 1337.09 193.503 1336.08 195.87C1332.23 204.85 1328.25 213.673 1324.15 222.369C1323.08 224.665 1320.05 226.267 1317.44 225.955C1301.22 224.028 1285 222.114 1268.78 220.208C1266.2 219.889 1264.93 217.876 1265.97 215.7C1269.88 207.415 1273.66 198.981 1277.32 190.42C1278.29 188.173 1281.22 186.522 1283.83 186.749C1300.25 188.209 1316.67 189.676 1333.1 191.136ZM1293.17 272.476C1295.73 272.887 1296.86 274.928 1295.63 277.069C1290.99 285.176 1286.21 293.149 1281.33 300.995C1280.07 303.036 1276.95 304.319 1274.44 303.858C1258.77 300.924 1243.12 297.983 1227.46 295.049C1224.98 294.588 1223.93 292.604 1225.13 290.662C1229.79 283.178 1234.33 275.573 1238.76 267.848C1239.92 265.835 1242.94 264.517 1245.47 264.914C1261.37 267.437 1277.27 269.953 1293.17 272.476ZM1246.04 345.822C1248.5 346.382 1249.37 348.416 1247.98 350.301C1242.63 357.622 1237.15 364.823 1231.58 371.903C1230.11 373.774 1226.96 374.745 1224.53 374.135C1209.53 370.287 1194.52 366.439 1179.52 362.583C1177.14 361.974 1176.28 360.06 1177.68 358.281C1182.99 351.52 1188.21 344.66 1193.32 337.686C1194.64 335.886 1197.75 334.837 1200.18 335.382C1215.47 338.862 1230.76 342.342 1246.04 345.822ZM1192.48 412.045C1194.81 412.754 1195.48 414.738 1193.89 416.489C1187.9 423.087 1181.81 429.593 1175.64 436C1174.01 437.687 1170.81 438.438 1168.51 437.687C1154.24 433.009 1139.95 428.332 1125.68 423.661C1123.41 422.903 1122.8 420.989 1124.35 419.387C1130.24 413.278 1136.04 407.077 1141.75 400.776C1143.25 399.111 1146.39 398.338 1148.71 399.019C1163.31 403.356 1177.89 407.708 1192.48 412.045ZM1084.15 413.2C1094.27 416.496 1096.99 424.852 1090.06 431.634C1016.59 503.563 930.971 562.089 840.443 615.18C831.903 620.19 818.935 619.843 811.602 614.478C756.615 574.612 701.642 534.761 646.656 494.895C639.302 489.53 638.493 482.202 644.809 478.502C712.265 438.934 776.068 395.333 830.812 341.733C835.948 336.701 848.228 335.241 858.359 338.536C933.62 363.419 1008.89 388.303 1084.15 413.2ZM1133.27 472.039C1135.5 472.861 1135.91 474.824 1134.18 476.397C1127.64 482.4 1121.02 488.311 1114.33 494.144C1112.57 495.675 1109.34 496.213 1107.18 495.327C1093.7 489.898 1080.22 484.47 1066.74 479.055C1064.6 478.19 1064.22 476.277 1065.89 474.824C1072.27 469.275 1078.58 463.633 1084.82 457.914C1086.47 456.411 1089.61 455.858 1091.8 456.659C1105.62 461.79 1119.44 466.907 1133.27 472.039ZM1069.17 526.667C1071.25 527.595 1071.47 529.537 1069.63 530.969C1062.61 536.454 1055.54 541.869 1048.39 547.22C1046.53 548.616 1043.34 548.935 1041.31 547.964C1028.68 541.848 1016.07 535.739 1003.44 529.615C1001.45 528.651 1001.24 526.759 1003.02 525.434C1009.83 520.338 1016.59 515.186 1023.28 509.948C1025.03 508.573 1028.14 508.226 1030.2 509.147C1043.2 514.994 1056.18 520.827 1069.17 526.667ZM1001 576.767C1002.95 577.801 1002.95 579.743 1001.03 581.055C993.621 586.122 986.173 591.125 978.665 596.072C976.69 597.376 973.563 597.532 971.682 596.441C959.961 589.701 948.253 582.947 936.532 576.2C934.678 575.137 934.651 573.244 936.532 572.018C943.69 567.305 950.794 562.536 957.865 557.702C959.678 556.462 962.798 556.256 964.706 557.298C976.798 563.776 988.903 570.268 1001 576.767ZM929.535 623.216C931.335 624.35 931.153 626.299 929.118 627.54C921.427 632.267 913.689 636.937 905.924 641.58C903.875 642.799 900.782 642.834 899.056 641.65C888.279 634.308 877.514 626.98 866.744 619.652C865.038 618.468 865.214 616.576 867.168 615.406C874.582 610.984 881.956 606.533 889.29 602.026C891.224 600.856 894.264 600.807 896.037 601.926C907.205 609.021 918.367 616.115 929.535 623.216ZM607.239 480.345C608.883 481.585 609.059 483.251 607.63 484.051C602.217 487.113 596.785 490.161 591.332 493.187C589.896 493.974 587.436 493.605 585.866 492.329C576.079 484.434 566.285 476.546 556.492 468.651C554.915 467.382 554.746 465.759 556.074 465.015C561.163 462.194 566.218 459.359 571.266 456.503C572.594 455.759 575 456.135 576.638 457.361C586.836 465.029 597.041 472.691 607.239 480.345ZM855.555 666.895C857.199 668.114 856.836 670.099 854.76 671.268C846.84 675.754 838.9 680.198 830.94 684.62C828.837 685.783 825.844 685.683 824.26 684.429C814.467 676.541 804.673 668.646 794.879 660.758C793.323 659.503 793.686 657.568 795.675 656.456C803.271 652.232 810.84 647.986 818.396 643.72C820.384 642.593 823.33 642.692 824.954 643.897C835.159 651.565 845.364 659.227 855.555 666.895ZM779.822 708.667C781.311 709.986 780.819 711.984 778.69 713.118C770.642 717.456 762.56 721.772 754.479 726.081C752.369 727.186 749.484 726.995 748.062 725.648C739.266 717.215 730.463 708.788 721.674 700.354C720.272 699.029 720.771 697.037 722.773 695.974C730.484 691.871 738.174 687.753 745.865 683.621C747.88 682.544 750.724 682.735 752.18 684.046C761.387 692.253 770.608 700.453 779.822 708.667ZM703.165 749.377C704.493 750.787 703.833 752.849 701.723 753.962C693.608 758.228 685.493 762.509 677.377 766.776C675.241 767.903 672.497 767.626 671.251 766.195C663.452 757.229 655.654 748.271 647.855 739.313C646.615 737.888 647.228 735.861 649.257 734.784C656.995 730.709 664.733 726.641 672.477 722.558C674.479 721.509 677.222 721.786 678.523 723.175C686.74 731.914 694.956 740.638 703.165 749.377ZM626.354 789.916C627.513 791.411 626.718 793.558 624.595 794.685C616.52 798.973 608.452 803.289 600.404 807.619C598.281 808.753 595.659 808.449 594.567 806.918C587.766 797.435 580.965 787.938 574.171 778.455C573.093 776.939 573.841 774.827 575.863 773.721C583.54 769.596 591.231 765.5 598.935 761.396C600.957 760.319 603.565 760.652 604.711 762.119C611.923 771.382 619.142 780.645 626.354 789.916ZM550.156 831.142C551.167 832.715 550.257 834.955 548.168 836.117C540.194 840.54 532.254 844.983 524.341 849.47C522.265 850.639 519.791 850.299 518.861 848.683C513.044 838.647 507.234 828.612 501.417 818.591C500.494 816.989 501.364 814.749 503.338 813.637C510.881 809.37 518.457 805.125 526.06 800.901C528.055 799.788 530.501 800.171 531.492 801.744C537.713 811.532 543.935 821.333 550.156 831.142ZM470.776 799.427C474.773 806.634 471.053 816.464 462.513 821.482C371.985 874.566 286.371 933.085 212.903 1005.01C205.96 1011.8 199.463 1009.95 198.229 1000.72C188.894 932.121 179.545 863.517 170.21 794.919C168.977 785.692 172.05 774.012 177.173 769.001C231.924 715.4 295.72 671.792 363.176 632.224C369.485 628.525 377.91 631.388 381.913 638.568C411.537 692.19 441.16 745.819 470.776 799.427ZM475.34 873.935C476.182 875.607 475.232 877.939 473.183 879.158C465.398 883.8 457.653 888.485 449.949 893.212C447.947 894.438 445.662 894.055 444.881 892.362C440.034 881.752 435.181 871.142 430.335 860.554C429.574 858.867 430.51 856.5 432.404 855.338C439.751 850.83 447.139 846.358 454.559 841.936C456.507 840.781 458.765 841.206 459.594 842.843C464.845 853.212 470.096 863.58 475.34 873.935ZM402.734 919.13C403.428 920.888 402.39 923.368 400.436 924.665C392.927 929.619 385.472 934.616 378.072 939.683C376.124 941.008 374.048 940.619 373.421 938.804C369.505 927.592 365.589 916.387 361.666 905.19C361.046 903.404 362.01 900.923 363.87 899.647C370.927 894.821 378.038 890.051 385.196 885.324C387.05 884.105 389.152 884.537 389.84 886.274C394.133 897.223 398.434 908.18 402.734 919.13ZM333.108 967.6C333.647 969.478 332.568 972.121 330.681 973.532C323.55 978.876 316.466 984.283 309.463 989.762C307.616 991.2 305.709 990.832 305.23 988.918C302.204 977.068 299.171 965.211 296.138 953.347C295.659 951.462 296.69 948.776 298.449 947.408C305.136 942.171 311.876 937.011 318.684 931.93C320.47 930.583 322.384 931.03 322.93 932.851C326.32 944.439 329.717 956.026 333.108 967.6ZM267.229 1020.24C267.64 1022.21 266.535 1025.06 264.769 1026.59C258.076 1032.42 251.457 1038.32 244.912 1044.33C243.186 1045.92 241.501 1045.56 241.151 1043.53C238.954 1030.96 236.756 1018.39 234.566 1005.81C234.215 1003.83 235.267 1000.94 236.905 999.429C243.139 993.716 249.455 988.082 255.838 982.526C257.516 981.051 259.228 981.484 259.633 983.433C262.167 995.701 264.701 1007.96 267.229 1020.24ZM163.638 760.992C163.915 763.083 163.248 765.713 162.135 766.875C157.909 771.255 153.744 775.706 149.639 780.227C148.574 781.418 147.516 780.624 147.287 778.484C145.865 765.131 144.442 751.772 143.02 738.427C142.784 736.279 143.425 733.636 144.409 732.544C148.237 728.327 152.113 724.174 156.056 720.085C157.087 719.022 158.152 719.837 158.428 721.942C160.167 734.947 161.9 747.966 163.638 760.992ZM205.879 1077.9C206.156 1080 205.077 1083.04 203.446 1084.74C197.272 1091.14 191.179 1097.65 185.187 1104.28C183.63 1105.99 182.161 1105.67 181.931 1103.51C180.509 1090.16 179.087 1076.81 177.665 1063.45C177.429 1061.34 178.474 1058.22 179.95 1056.58C185.672 1050.28 191.476 1044.08 197.367 1037.95C198.91 1036.35 200.4 1036.79 200.676 1038.83C202.408 1051.86 204.147 1064.88 205.879 1077.9ZM15.5493 1328.57C12.2668 1339.4 10.3256 1338.27 10.9457 1325.77C15.5358 1232.99 20.1326 1140.21 24.7295 1047.41C25.3698 1034.92 27.6884 1018.1 30.1149 1010.11C56.0175 924.63 97.3283 856.188 148.662 798.796C153.467 793.431 158.395 796.755 159.527 806.082C167.844 875.749 176.162 945.41 184.479 1015.08C185.618 1024.42 181.136 1037.74 174.639 1045.01C105.754 1122.01 50.3153 1213.87 15.5493 1328.57ZM149.868 1141.43C150.037 1143.66 148.965 1146.98 147.516 1148.83C141.948 1155.91 136.475 1163.1 131.117 1170.42C129.702 1172.34 128.482 1172.04 128.367 1169.74C127.639 1155.53 126.918 1141.31 126.19 1127.09C126.082 1124.83 127.059 1121.49 128.394 1119.65C133.51 1112.68 138.727 1105.82 144.038 1099.06C145.42 1097.31 146.7 1097.69 146.855 1099.89C147.86 1113.73 148.864 1127.58 149.868 1141.43ZM99.9704 1211.71C100.038 1214.07 99.0133 1217.69 97.7327 1219.76C92.8595 1227.6 88.1009 1235.56 83.4569 1243.65C82.2437 1245.79 81.2259 1245.55 81.2124 1243.1C81.1046 1227.94 80.9967 1212.76 80.8822 1197.59C80.8687 1195.19 81.7921 1191.53 82.9581 1189.49C87.3797 1181.77 91.9226 1174.18 96.5734 1166.7C97.7934 1164.74 98.8448 1165.08 98.9055 1167.42C99.2627 1182.19 99.6132 1196.94 99.9704 1211.71ZM56.9612 1289.59C56.9342 1292.14 56.0108 1296.07 54.9256 1298.35C50.8276 1307.05 46.8508 1315.87 43.0089 1324.85C41.9844 1327.22 41.2362 1327.03 41.3036 1324.41C41.7081 1308.18 42.1192 1291.95 42.5304 1275.72C42.591 1273.15 43.4201 1269.17 44.3907 1266.91C48.0573 1258.35 51.8453 1249.93 55.7614 1241.65C56.7792 1239.47 57.6015 1239.77 57.5745 1242.27C57.3723 1258.04 57.1701 1273.83 56.9612 1289.59ZM21.6155 1376C21.5076 1378.73 20.7258 1382.96 19.8698 1385.51C16.6142 1395.16 13.507 1404.95 10.5413 1414.93C9.77293 1417.5 9.26068 1417.37 9.38874 1414.56C10.211 1397.16 11.0401 1379.76 11.8624 1362.35C11.9972 1359.59 12.7049 1355.25 13.4329 1352.78C16.257 1343.29 19.2294 1333.94 22.3299 1324.75C23.1388 1322.33 23.7252 1322.61 23.6173 1325.29C22.9433 1342.2 22.2828 1359.1 21.6155 1376ZM31.9482 938.655C32.0763 935.842 32.5818 932.234 33.0738 930.583C34.9678 924.233 36.9495 917.982 39.0187 911.837C39.5647 910.236 39.9219 911.114 39.8141 913.836C39.1535 930.725 38.4862 947.635 37.819 964.538C37.7111 967.267 37.1517 970.853 36.5653 972.596C34.341 979.202 32.2111 985.899 30.1823 992.71C29.6566 994.489 29.3465 993.667 29.4746 990.867C30.2969 973.461 31.1192 956.055 31.9482 938.655ZM52.4924 880.618C52.5531 878.01 53.126 874.686 53.773 873.169C56.2197 867.443 58.7541 861.823 61.3693 856.273C62.0635 854.813 62.6027 855.678 62.569 858.208C62.3668 873.992 62.1579 889.761 61.9557 905.544C61.9152 908.081 61.2884 911.426 60.5469 912.985C57.743 918.925 55.02 924.97 52.3913 931.108C51.7105 932.723 51.1915 931.923 51.2657 929.315C51.6701 913.078 52.0812 896.855 52.4924 880.618ZM78.1793 828.286C78.1659 825.834 78.786 822.758 79.5611 821.411C82.52 816.245 85.5531 811.163 88.6604 806.174C89.4827 804.863 90.1971 805.699 90.2578 808.073C90.615 822.829 90.9655 837.599 91.3228 852.354C91.3699 854.743 90.7027 857.818 89.8264 859.229C86.49 864.587 83.2345 870.037 80.0599 875.572C79.2241 877.032 78.5366 876.224 78.5163 873.786C78.4085 858.612 78.2939 843.453 78.1793 828.286ZM108.531 781.056C108.423 778.774 109.036 775.947 109.939 774.721C113.357 770.057 116.841 765.457 120.4 760.95C121.31 759.781 122.22 760.61 122.382 762.828C123.386 776.677 124.39 790.525 125.395 804.374C125.55 806.606 124.869 809.441 123.878 810.71C120.07 815.55 116.329 820.476 112.656 825.472C111.685 826.798 110.829 825.982 110.708 823.7C109.986 809.483 109.265 795.273 108.531 781.056ZM181.136 699.808C180.779 697.788 181.385 695.336 182.491 694.33C186.656 690.51 190.876 686.74 195.149 683.019C196.275 682.055 197.522 682.841 197.926 684.812C200.46 697.08 202.995 709.348 205.529 721.616C205.933 723.586 205.28 726.052 204.08 727.108C199.496 731.084 194.967 735.131 190.498 739.228C189.325 740.305 188.072 739.554 187.721 737.52C185.524 724.954 183.333 712.388 181.136 699.808ZM222.386 664.656C221.894 662.742 222.467 660.46 223.64 659.539C228.109 656.045 232.611 652.607 237.167 649.198C238.36 648.298 239.776 649.085 240.329 650.942C243.719 662.515 247.109 674.103 250.506 685.676C251.052 687.555 250.452 689.837 249.158 690.808C244.285 694.45 239.439 698.157 234.647 701.906C233.379 702.905 231.957 702.14 231.472 700.241C228.439 688.377 225.413 676.52 222.386 664.656ZM266.278 632.394C265.645 630.594 266.137 628.461 267.377 627.611C272.095 624.386 276.847 621.197 281.633 618.05C282.88 617.235 284.464 617.965 285.151 619.737C289.451 630.686 293.752 641.629 298.052 652.579C298.746 654.337 298.2 656.498 296.872 657.377C291.736 660.758 286.634 664.181 281.572 667.646C280.237 668.568 278.66 667.824 278.033 666.016C274.117 654.811 270.194 643.614 266.278 632.394ZM312.28 602.493C311.499 600.792 311.93 598.766 313.197 598C318.111 594.988 323.051 591.997 328.005 589.028C329.313 588.255 331.045 588.957 331.881 590.644C337.132 600.998 342.375 611.367 347.626 621.721C348.469 623.394 348.037 625.414 346.628 626.25C341.304 629.418 336.013 632.621 330.742 635.867C329.374 636.704 327.614 636.009 326.832 634.294C321.98 623.691 317.133 613.096 312.28 602.493ZM359.9 574.385C358.97 572.77 359.293 570.863 360.628 570.105C365.676 567.256 370.738 564.414 375.814 561.6C377.148 560.849 379.056 561.522 380.046 563.095C386.268 572.904 392.489 582.692 398.71 592.5C399.708 594.074 399.357 596.023 397.921 596.817C392.475 599.836 387.036 602.876 381.624 605.952C380.201 606.767 378.274 606.094 377.344 604.478C371.527 594.449 365.717 584.414 359.9 574.385ZM408.632 547.504C407.547 545.98 407.762 544.144 409.117 543.428C414.246 540.664 419.389 537.914 424.539 535.179C425.893 534.456 427.929 535.073 429.095 536.554C436.307 545.817 443.519 555.087 450.738 564.35C451.904 565.845 451.654 567.688 450.199 568.468C444.678 571.409 439.158 574.357 433.651 577.312C432.202 578.092 430.126 577.497 429.034 575.959C422.233 566.483 415.433 556.986 408.632 547.504ZM457.997 521.281C456.743 519.835 456.817 518.12 458.186 517.397C463.355 514.668 468.532 511.947 473.708 509.218C475.043 508.517 477.227 509.062 478.541 510.458C486.757 519.204 494.974 527.943 503.19 536.674C504.511 538.085 504.403 539.863 502.954 540.622C497.407 543.535 491.853 546.469 486.299 549.382C484.843 550.147 482.646 549.594 481.392 548.148C473.594 539.197 465.795 530.239 457.997 521.281ZM608.243 499.402C614.66 495.816 625.72 497.283 632.953 502.712C686.625 543.336 740.304 583.939 793.97 624.542C801.202 629.978 800.056 638.376 791.368 643.231C699.317 694.62 603.639 742.027 511.582 793.431C502.9 798.271 492.534 796.478 488.416 789.363C457.478 736.492 426.547 683.621 395.616 630.75C391.491 623.635 393.325 614.917 399.748 611.331C468.35 573.018 539.641 537.702 608.243 499.402ZM507.443 495.185C506.014 493.832 505.994 492.159 507.335 491.436C512.492 488.701 517.634 485.951 522.777 483.18C524.125 482.464 526.397 482.939 527.886 484.257C537.1 492.471 546.314 500.671 555.528 508.871C557.004 510.203 557.051 511.911 555.602 512.677C550.089 515.639 544.568 518.595 539.035 521.536C537.599 522.301 535.26 521.834 533.845 520.473C525.042 512.039 516.239 503.612 507.443 495.185ZM604.63 441.11C602.898 439.94 602.581 438.353 603.875 437.58C608.836 434.618 613.77 431.648 618.677 428.636C619.958 427.828 622.458 428.105 624.258 429.239C635.42 436.347 646.581 443.434 657.75 450.522C659.55 451.67 659.88 453.3 658.498 454.15C653.227 457.375 647.943 460.578 642.625 463.746C641.223 464.59 638.662 464.299 636.936 463.116C626.172 455.78 615.401 448.445 604.63 441.11ZM651.387 412.01C649.5 410.925 649.001 409.394 650.255 408.565C655.04 405.411 659.792 402.222 664.51 398.99C665.73 398.154 668.312 398.296 670.26 399.352C682.352 405.83 694.444 412.321 706.542 418.813C708.49 419.855 708.996 421.457 707.681 422.357C702.619 425.816 697.517 429.232 692.388 432.612C691.033 433.512 688.418 433.321 686.531 432.244C674.809 425.497 663.102 418.757 651.387 412.01ZM696.203 380.805C694.181 379.826 693.527 378.31 694.707 377.424C699.263 374.015 703.779 370.571 708.248 367.069C709.42 366.148 712.049 366.162 714.132 367.105C727.12 372.938 740.095 378.778 753.09 384.61C755.18 385.539 755.86 387.105 754.613 388.09C749.808 391.846 744.968 395.546 740.075 399.21C738.814 400.153 736.105 400.131 734.069 399.146C721.445 393.037 708.827 386.914 696.203 380.805ZM738.612 346.935C736.442 346.056 735.626 344.553 736.745 343.582C741.005 339.862 745.231 336.098 749.403 332.278C750.495 331.279 753.178 331.102 755.395 331.924C769.22 337.055 783.037 342.172 796.854 347.303C799.085 348.125 799.941 349.684 798.762 350.769C794.286 354.872 789.764 358.912 785.174 362.895C783.974 363.944 781.217 364.079 779.047 363.207C765.566 357.778 752.086 352.349 738.612 346.935ZM778.09 309.819C775.791 309.067 774.794 307.593 775.825 306.516C779.761 302.434 783.644 298.295 787.465 294.071C788.463 292.972 791.172 292.611 793.518 293.32C808.111 297.657 822.703 302.001 837.289 306.339C839.641 307.033 840.686 308.578 839.594 309.783C835.503 314.291 831.344 318.742 827.118 323.129C826.013 324.277 823.229 324.596 820.924 323.844C806.641 319.167 792.365 314.496 778.09 309.819ZM814.15 268.911C811.737 268.28 810.557 266.835 811.487 265.665C815.033 261.144 818.524 256.551 821.941 251.888C822.831 250.683 825.534 250.13 827.994 250.683C843.281 254.163 858.581 257.642 873.868 261.122C876.328 261.682 877.555 263.213 876.598 264.517C872.924 269.528 869.197 274.439 865.382 279.28C864.385 280.563 861.594 281.08 859.181 280.456C844.171 276.601 829.167 272.767 814.15 268.911ZM846.274 223.673C843.746 223.206 842.405 221.76 843.207 220.456C846.328 215.445 849.361 210.363 852.326 205.197C853.095 203.85 855.777 203.071 858.339 203.475C874.246 206.005 890.146 208.521 906.046 211.044C908.607 211.455 910.029 212.957 909.187 214.417C906.012 219.967 902.75 225.417 899.413 230.782C898.551 232.185 895.767 232.95 893.253 232.469C877.589 229.534 861.931 226.6 846.274 223.673ZM873.956 173.531C871.34 173.226 869.817 171.788 870.511 170.335C873.127 164.785 875.654 159.151 878.114 153.439C878.755 151.922 881.397 150.88 884.032 151.121C900.465 152.574 916.891 154.034 933.31 155.508C935.952 155.749 937.55 157.266 936.849 158.882C934.22 165.012 931.504 171.065 928.706 177.004C927.952 178.584 925.235 179.584 922.62 179.279C906.396 177.365 890.179 175.452 873.956 173.531ZM896.697 117.932C894.008 117.797 892.316 116.387 892.862 114.771C894.938 108.626 896.913 102.382 898.8 96.032C899.292 94.3736 901.86 93.0341 904.583 93.0837C921.413 93.3672 938.264 93.6649 955.101 93.9555C957.804 94.0051 959.59 95.4934 959.058 97.3007C957.029 104.104 954.899 110.802 952.688 117.386C952.095 119.122 949.433 120.426 946.736 120.306C930.061 119.505 913.386 118.718 896.697 117.932ZM28.2209 931.193C18.8587 1110.63 9.49658 1290.1 0.13443 1469.54C195.479 704.769 1202.41 836.783 1397.75 72.0063C1226.78 72.8851 1055.81 73.7568 884.834 74.6427C765.115 543.365 147.947 462.457 28.2209 931.193Z" fill="url(#paint0_linear_28_522)"/>
</g>
</g>
<defs>
<linearGradient id="paint0_linear_28_522" x1="0.13443" y1="72.0063" x2="1397.75" y2="72.0063" gradientUnits="userSpaceOnUse">
<stop stop-color="#FF0000"/>
<stop offset="0.489" stop-color="#42FF00"/>
<stop offset="1" stop-color="#2400FF"/>
</linearGradient>
<clipPath id="clip0_28_522">
<rect width="1397.65" height="1469.61" fill="white" transform="translate(0.174896 0.41806)"/>
</clipPath>
</defs>
</svg>
