<svg width="41" height="40" viewBox="0 0 41 40" fill="none" xmlns="http://www.w3.org/2000/svg">
<path d="M37.6419 13.0333C37.65 12.9279 37.65 12.822 37.6419 12.7166L34.3086 4.38331C34.1784 4.05391 33.9467 3.77454 33.647 3.58574C33.3473 3.39694 32.9953 3.30852 32.6419 3.33331H9.30859C8.9748 3.33299 8.64859 3.4329 8.37223 3.62011C8.09588 3.80732 7.8821 4.0732 7.75859 4.38331L4.42526 12.7166C4.41723 12.822 4.41723 12.9279 4.42526 13.0333C4.36988 13.1261 4.33044 13.2275 4.30859 13.3333C4.32714 14.4854 4.64397 15.613 5.22817 16.6061C5.81237 17.5992 6.64399 18.424 7.64193 19V35C7.64193 35.442 7.81752 35.8659 8.13008 36.1785C8.44264 36.4911 8.86657 36.6666 9.30859 36.6666H32.6419C33.084 36.6666 33.5079 36.4911 33.8204 36.1785C34.133 35.8659 34.3086 35.442 34.3086 35V19.0666C35.3162 18.4849 36.154 17.6497 36.7388 16.6439C37.3235 15.6381 37.6349 14.4967 37.6419 13.3333C37.6575 13.2339 37.6575 13.1327 37.6419 13.0333ZM22.6419 33.3333H19.3086V26.6666H22.6419V33.3333ZM30.9753 33.3333H25.9753V25C25.9753 24.558 25.7997 24.134 25.4871 23.8215C25.1745 23.5089 24.7506 23.3333 24.3086 23.3333H17.6419C17.1999 23.3333 16.776 23.5089 16.4634 23.8215C16.1509 24.134 15.9753 24.558 15.9753 25V33.3333H10.9753V20C11.9244 19.9946 12.8614 19.7867 13.7237 19.39C14.586 18.9934 15.3536 18.4172 15.9753 17.7C16.6009 18.4094 17.3703 18.9775 18.2323 19.3666C19.0944 19.7558 20.0294 19.9571 20.9753 19.9571C21.9211 19.9571 22.8561 19.7558 23.7182 19.3666C24.5802 18.9775 25.3496 18.4094 25.9753 17.7C26.5969 18.4172 27.3646 18.9934 28.2268 19.39C29.0891 19.7867 30.0261 19.9946 30.9753 20V33.3333ZM30.9753 16.6666C30.0912 16.6666 29.2434 16.3155 28.6182 15.6903C27.9931 15.0652 27.6419 14.2174 27.6419 13.3333C27.6419 12.8913 27.4663 12.4674 27.1538 12.1548C26.8412 11.8422 26.4173 11.6666 25.9753 11.6666C25.5332 11.6666 25.1093 11.8422 24.7967 12.1548C24.4842 12.4674 24.3086 12.8913 24.3086 13.3333C24.3086 14.2174 23.9574 15.0652 23.3323 15.6903C22.7072 16.3155 21.8593 16.6666 20.9753 16.6666C20.0912 16.6666 19.2434 16.3155 18.6182 15.6903C17.9931 15.0652 17.6419 14.2174 17.6419 13.3333C17.6419 12.8913 17.4663 12.4674 17.1538 12.1548C16.8412 11.8422 16.4173 11.6666 15.9753 11.6666C15.5332 11.6666 15.1093 11.8422 14.7967 12.1548C14.4842 12.4674 14.3086 12.8913 14.3086 13.3333C14.325 13.7711 14.255 14.2077 14.1027 14.6184C13.9503 15.0291 13.7186 15.4058 13.4207 15.7269C13.1227 16.0481 12.7645 16.3074 12.3664 16.4901C11.9682 16.6728 11.538 16.7752 11.1003 16.7916C10.2162 16.8248 9.35519 16.5054 8.70663 15.9037C8.38549 15.6058 8.12618 15.2475 7.9435 14.8494C7.76082 14.4513 7.65834 14.0211 7.64193 13.5833L10.4419 6.66665H31.5086L34.3086 13.5833C34.2454 14.4233 33.8665 15.2083 33.2481 15.7803C32.6297 16.3523 31.8177 16.669 30.9753 16.6666Z" fill="#FFBC57"/>
</svg>
